PathFileType	4	(X/Y/Z)	/Users/niels/Desktop/University/Third Semester/Perception and Action/Exam/Gymnastics Motion Tracking/Code for Gym Tracking/Analyzed Data/Webcam_Backflip/id1_6_trajectory_Sports2D/id1_6_trajectory_Sports2D_px_person00.trc
DataRate	CameraRate	NumFrames	NumMarkers	Units	OrigDataRate	OrigDataStartFrame	OrigNumFrames
29.714285714285715	29.714285714285715	8	22	m	29.714285714285715	91	105
Frame#	Time	Hip			RHip			RKnee			RAnkle			RBigToe			RSmallToe			RHeel			LHip			LKnee			LAnkle			LBigToe			LSmallToe			LHeel			Neck			Head			Nose			RShoulder			RElbow			RWrist			LShoulder			LElbow			LWrist		
		X1	Y1	Z1	X2	Y2	Z2	X3	Y3	Z3	X4	Y4	Z4	X5	Y5	Z5	X6	Y6	Z6	X7	Y7	Z7	X8	Y8	Z8	X9	Y9	Z9	X10	Y10	Z10	X11	Y11	Z11	X12	Y12	Z12	X13	Y13	Z13	X14	Y14	Z14	X15	Y15	Z15	X16	Y16	Z16	X17	Y17	Z17	X18	Y18	Z18	X19	Y19	Z19	X20	Y20	Z20	X21	Y21	Z21	X22	Y22	Z22
91	3.0625	1.3469839020236156	-0.618274152345028	0.0	1.3100216044720214	-0.6257490493652786	0.0	1.2938814908245262	-0.7580356760541235	0.0	1.2869680586883498	-0.8933974210498176	0.0	1.3129275502440976	-0.91582351486961	0.0	1.2891249608049733	-0.9218611799647588	0.0	1.2816840247170154	-0.909883004524647	0.0	1.380684631894228	-0.6138887637275097	0.0	1.4533827911912809	-0.7133083586644684	0.0	1.4616233665215403	-0.8564147504137966	0.0	1.513158502465361	-0.8913503323512436	0.0	1.512803731522965	-0.8827367448032517	0.0	1.4516025647297432	-0.8797239888724192	0.0	1.352908640169491	-0.40830156143398405	0.0	1.3988181016775192	-0.31592468439805244	0.0	1.396942934207245	-0.3817541956398518	0.0	1.2916370447677195	-0.43518195863705084	0.0	1.256008051399915	-0.5401917717010893	0.0	1.2877710470048296	-0.6359830580519972	0.0	1.390101725873764	-0.43069500384446413	0.0	1.3674563029137456	-0.5250750527841898	0.0	1.3783723918443525	-0.6063338257204659	0.0
92	3.096153846153846	1.3566751392990366	-0.6165995789867785	0.0	1.3178222053447712	-0.624150860702623	0.0	1.296221339859687	-0.7564326490887038	0.0	1.2874004120475737	-0.8925592192741482	0.0	1.3121177683503025	-0.9183345761665416	0.0	1.2875688528814992	-0.923928369765607	0.0	1.2824696354674368	-0.9093106398907305	0.0	1.3913961816813254	-0.6127443005905882	0.0	1.4629589057888812	-0.7160760615705839	0.0	1.4930144113129435	-0.8691966985543758	0.0	1.547091705244045	-0.8968073328972015	0.0	1.547213956238934	-0.8893550899437519	0.0	1.485703980931172	-0.8959837395316532	0.0	1.3654906981712447	-0.4058153084763417	0.0	1.4128738378364896	-0.3124204764277808	0.0	1.409991707340307	-0.37835242014161513	0.0	1.3022051830165187	-0.43181610316388175	0.0	1.2646788178134791	-0.5375085678281917	0.0	1.2995861409618614	-0.6328513894124767	0.0	1.403870021154748	-0.4295361583985012	0.0	1.3781557826347648	-0.5227499639262746	0.0	1.3865865444021515	-0.6037356315764808	0.0
93	3.129807692307692	1.3669813660843941	-0.6158747860418894	0.0	1.3263317887223316	-0.6230651479371825	0.0	1.2998016277473239	-0.7554138346608271	0.0	1.288192873476539	-0.8923407793582133	0.0	1.3120217583185805	-0.9214217032440117	0.0	1.2869110968328619	-0.9261997686313318	0.0	1.2834588910981908	-0.9090523050694761	0.0	1.4030745307639314	-0.6127204450968148	0.0	1.4714867595077847	-0.7221210970805938	0.0	1.51653087551216	-0.8812529320180704	0.0	1.5702511577541844	-0.9040398399103057	0.0	1.5714754574970597	-0.8972980225965005	0.0	1.511412489027817	-0.9100079869495853	0.0	1.3788771194105	-0.40315644402942197	0.0	1.4272837218573695	-0.3082306192318328	0.0	1.423121820258847	-0.37476307033360473	0.0	1.3133113082521306	-0.4282730178706487	0.0	1.272983404109667	-0.5341313891809348	0.0	1.3102591074205052	-0.628587552475341	0.0	1.4192017498567284	-0.42873165147505465	0.0	1.3920177237709712	-0.5211713242170609	0.0	1.3984182409847827	-0.6021992799235587	0.0
94	3.1634615384615383	1.3780292286009912	-0.6159596011701456	0.0	1.3359571496008882	-0.6225454683243901	0.0	1.3050583555180937	-0.7552240702729557	0.0	1.2894522315931483	-0.8919988493417037	0.0	1.3124851109429159	-0.9243830186148357	0.0	1.2870283580466981	-0.927938690465842	0.0	1.2847827120252597	-0.9082397313164069	0.0	1.4157402618157495	-0.6136564306030794	0.0	1.4796869982997547	-0.7298990742864239	0.0	1.5317916010772492	-0.8925842939338192	0.0	1.5824827178757115	-0.9136203069811032	0.0	1.5853337934714096	-0.907254460163893	0.0	1.5278353666380977	-0.9218321041781627	0.0	1.393169000115327	-0.40007345828503016	0.0	1.4419944791176136	-0.30326700959882397	0.0	1.4361650521931735	-0.3707495896218207	0.0	1.325084028422158	-0.4243668833724112	0.0	1.281108373822722	-0.5298411658734964	0.0	1.3192880525685409	-0.623234624841561	0.0	1.436109939416787	-0.4282739811718106	0.0	1.4094522992444258	-0.520537058796098	0.0	1.4149128794322035	-0.6028332877361077	0.0
95	3.1971153846153846	1.3897781607034456	-0.6164630984059134	0.0	1.3468170388895895	-0.6224189534949	0.0	1.3123258426951225	-0.7559838324464988	0.0	1.2912784532632813	-0.8902523882472108	0.0	1.3132747738085293	-0.9261966970116094	0.0	1.2877672014866215	-0.9280981363963428	0.0	1.2865214664818017	-0.9054666374509533	0.0	1.429172630782101	-0.6151194268097561	0.0	1.4879085197052584	-0.7377791196075123	0.0	1.5400171121325394	-0.9028904281259106	0.0	1.585884096323434	-0.9247946586390436	0.0	1.590631313843438	-0.9186337101605486	0.0	1.536105469064144	-0.9314240378032287	0.0	1.4084696338179297	-0.3963099298759745	0.0	1.457040581781802	-0.2975367231747489	0.0	1.4491212157322597	-0.3660227587760026	0.0	1.3376714340443185	-0.41983162859138506	0.0	1.2894311746857703	-0.5244733078785605	0.0	1.326376448624838	-0.617020065743503	0.0	1.4544195539058429	-0.4280285658544949	0.0	1.4304035480891746	-0.5209733986658132	0.0	1.4363146267561473	-0.6064856735180946	0.0
96	3.230769230769231	1.4019935994644706	-0.6168906021909082	0.0	1.35862805486267	-0.6223225465813271	0.0	1.3218383671362843	-0.7575847764673783	0.0	1.2938308080448602	-0.8856271932511693	0.0	1.3141778138281939	-0.9255854338975559	0.0	1.2889168568529066	-0.9253836369732543	0.0	1.2887870668623276	-0.8990614082834678	0.0	1.4429507508403978	-0.6165413298943165	0.0	1.4961763831882058	-0.7445195057669313	0.0	1.5433727217122086	-0.911625967852114	0.0	1.5838635661241947	-0.9357181987433386	0.0	1.5905395000925278	-0.929673222611716	0.0	1.538783200400763	-0.9386589058849569	0.0	1.4246979723150968	-0.39164157153232176	0.0	1.47244373062194	-0.2910322248586144	0.0	1.4623103734585716	-0.3602850698352995	0.0	1.3510764991930462	-0.4144358221933641	0.0	1.2983558615991861	-0.51794927668603	0.0	1.3315580445943256	-0.610296698331855	0.0	1.4736919909750947	-0.4275787724907992	0.0	1.4540466817833582	-0.5223195732038408	0.0	1.4618608578330063	-0.6130918255215652	0.0
97	3.2644230769230766	1.4143311027488974	-0.6167064542397036	0.0	1.3708510857889542	-0.6217211656191266	0.0	1.3337498185538588	-0.7595954534608998	0.0	1.297439037138878	-0.8769939435754475	0.0	1.315213074050659	-0.9213763469713395	0.0	1.290373114029201	-0.9186436889305537	0.0	1.2918980431146738	-0.8877152036092112	0.0	1.4565307258675833	-0.6173010583771876	0.0	1.504269926765538	-0.7494875587807188	0.0	1.5440595492578968	-0.9182903388344186	0.0	1.5796410296519874	-0.9446566130980095	0.0	1.588185649580253	-0.9385914690442819	0.0	1.5386906014082542	-0.9434679550636247	0.0	1.44147232410598	-0.3859066329461853	0.0	1.4880455343398884	-0.28368303243147436	0.0	1.476118357872675	-0.3533464310106226	0.0	1.36502583320449	-0.4080552920306454	0.0	1.308083461625229	-0.5102648870503951	0.0	1.3351718551157314	-0.6033836924298323	0.0	1.493274047105428	-0.42623497832305945	0.0	1.4789411411354438	-0.5238981611918747	0.0	1.4902042531683874	-0.6212937332342093	0.0
98	3.298076923076923	1.4264058797694874	-0.6153606785135439	0.0	1.3828794863846403	-0.6199714852421395	0.0	1.3480479223696191	-0.7612842419611007	0.0	1.3027065650835497	-0.8641710558814639	0.0	1.316845812547243	-0.9131814675851918	0.0	1.2924525295191411	-0.9075954763852453	0.0	1.2965075128794452	-0.871319030653127	0.0	1.4693763567271023	-0.6168211637797147	0.0	1.5118591574137137	-0.7525975076179029	0.0	1.5437375229710355	-0.9226600311107738	0.0	1.5754610905508528	-0.9508530408688968	0.0	1.5857915764422863	-0.9445210616823242	0.0	1.5379347338784144	-0.9459239569510327	0.0	1.4581686426992393	-0.3790411677356952	0.0	1.5034329515955438	-0.27537633408200046	0.0	1.490443130944714	-0.34522137168046324	0.0	1.3789808806904342	-0.4006859454034086	0.0	1.3184761262812095	-0.5015228230646317	0.0	1.3377047015233492	-0.5963753401905401	0.0	1.5124401787557804	-0.4233120054482881	0.0	1.5036741552237565	-0.5246213668071078	0.0	1.520015771496405	-0.6287273307241671	0.0
